<?xml version="1.0" standalone="no"?>
<!DOCTYPE svg PUBLIC "-//W3C//DTD SVG 20010904//EN"
 "http://www.w3.org/TR/2001/REC-SVG-20010904/DTD/svg10.dtd">
<svg version="1.0" xmlns="http://www.w3.org/2000/svg"
 width="352.000000pt" height="331.000000pt" viewBox="0 0 352.000000 331.000000"
 preserveAspectRatio="xMidYMid meet">
<metadata>
Created by potrace 1.16, written by Peter Selinger 2001-2019
</metadata>
<g transform="translate(0.000000,331.000000) scale(0.100000,-0.100000)"
fill="#000000" stroke="none">
<path d="M1675 2644 c-170 -24 -269 -54 -375 -111 -251 -135 -423 -355 -498
-633 -22 -82 -25 -116 -25 -245 0 -129 3 -163 25 -245 100 -373 383 -645 756
-726 103 -22 301 -22 404 0 373 81 656 353 756 726 22 82 25 116 25 245 0 129
-3 163 -25 245 -100 371 -388 649 -751 724 -77 16 -241 27 -292 20z m-45 -112
c0 -4 -17 -32 -37 -62 -61 -90 -158 -292 -194 -404 l-34 -105 -217 -1 c-143 0
-218 4 -218 10 0 23 73 157 120 219 119 160 297 280 490 330 87 23 90 23 90
13z m198 -63 c60 -90 155 -285 196 -406 l35 -103 -294 0 c-162 0 -295 2 -295
4 0 21 73 202 115 286 63 126 172 292 188 287 7 -2 31 -32 55 -68z m188 40
c182 -56 342 -169 454 -320 47 -62 120 -196 120 -219 0 -6 -74 -10 -214 -10
l-214 0 -36 114 c-35 107 -148 351 -196 424 -22 31 -22 32 -2 32 11 0 51 -10
88 -21z m-679 -671 c-16 -67 -28 -244 -22 -330 l7 -98 -210 0 -209 0 -14 63
c-17 75 -17 320 -1 360 l12 27 221 0 221 0 -5 -22z m748 0 c15 -70 25 -244 19
-330 l-7 -98 -337 0 -338 0 -7 96 c-8 98 9 303 26 337 9 16 35 17 324 17 l315
0 5 -22z m546 -5 c21 -55 23 -224 5 -327 l-18 -96 -207 0 -207 0 -1 168 c-1
92 -6 191 -11 219 -5 29 -7 55 -4 58 3 3 101 5 219 5 l213 0 11 -27z m-1263
-620 c39 -123 93 -234 166 -342 31 -46 54 -86 52 -89 -9 -8 -150 40 -221 75
-175 88 -332 248 -408 416 l-17 37 199 0 198 0 31 -97z m697 60 c-11 -59 -64
-188 -114 -275 -71 -123 -161 -238 -186 -238 -25 0 -116 111 -190 233 -52 85
-113 226 -122 284 l-6 33 313 0 312 0 -7 -37z m498 0 c-76 -168 -233 -328
-408 -416 -62 -30 -191 -77 -216 -77 -5 0 16 38 46 83 30 46 73 122 95 168 34
71 51 118 96 267 2 9 52 12 204 12 l200 0 -17 -37z"/>
</g>
</svg>
