<?xml version="1.0" standalone="no"?>
<!DOCTYPE svg PUBLIC "-//W3C//DTD SVG 20010904//EN"
 "http://www.w3.org/TR/2001/REC-SVG-20010904/DTD/svg10.dtd">
<svg version="1.0" xmlns="http://www.w3.org/2000/svg"
 width="352.000000pt" height="331.000000pt" viewBox="0 0 352.000000 331.000000"
 preserveAspectRatio="xMidYMid meet">
<metadata>
Created by potrace 1.16, written by Peter Selinger 2001-2019
</metadata>
<g transform="translate(0.000000,331.000000) scale(0.100000,-0.100000)"
fill="#000000" stroke="none">
<path d="M642 2495 l-22 -16 0 -818 c0 -690 2 -820 14 -837 14 -19 37 -19
1126 -19 1089 0 1112 0 1126 19 21 29 21 1633 0 1662 -14 19 -39 19 -1118 22
-989 2 -1106 1 -1126 -13z m2078 -89 c0 -7 -952 -841 -960 -841 -8 0 -935 819
-945 835 -4 7 309 10 949 10 526 0 956 -2 956 -4z m-1606 -409 c208 -184 378
-338 378 -342 -1 -3 -144 -133 -319 -287 -175 -154 -348 -308 -385 -340 l-68
-60 0 687 c0 377 4 684 8 681 4 -2 178 -155 386 -339z m1686 -347 c0 -374 -2
-680 -5 -680 -6 0 -750 690 -752 698 -2 8 738 660 750 661 4 1 7 -305 7 -679z
m-465 -394 c201 -187 368 -343 371 -348 3 -4 -423 -8 -946 -8 -559 0 -950 4
-948 9 2 5 165 152 363 326 198 174 369 325 380 335 20 18 22 17 104 -56 46
-41 92 -74 101 -74 10 0 58 36 106 79 49 44 92 79 96 78 4 -1 172 -155 373
-341z"/>
</g>
</svg>
